<?xml version="1.0" encoding="utf-8"?>
<!-- Generator: Adobe Illustrator 23.0.2, SVG Export Plug-In . SVG Version: 6.00 Build 0)  -->
<svg version="1.1" id="Layer_1" xmlns="http://www.w3.org/2000/svg" xmlns:xlink="http://www.w3.org/1999/xlink" x="0px" y="0px"
	 viewBox="0 0 418.37 69.4" style="enable-background:new 0 0 418.37 69.4;" xml:space="preserve">
<style type="text/css">
	.st0{fill:#004894;}
</style>
<g>
	<g>
		<path class="st0" d="M20.94,0H6.98C3.12,0,0,3.12,0,6.98v13.97c0,3.85,3.12,6.98,6.98,6.98h13.96c3.85,0,6.98-3.12,6.98-6.98V6.98
			C27.92,3.12,24.8,0,20.94,0z M20.94,20.95H6.98V6.98h13.96V20.95z"/>
		<path class="st0" d="M13.91,8.19c-3.16,0-5.73,2.57-5.73,5.73c0,3.16,2.56,5.73,5.73,5.73c3.16,0,5.73-2.56,5.73-5.73
			C19.64,10.75,17.08,8.19,13.91,8.19z"/>
	</g>
	<path d="M47.45,0.03l13.6,19.77V4.59l-0.04-3.62h-4.09V0.03h8.76v0.94h-3.38l-0.04,3.62v23.54l-0.63,0.2L43.41,1.8v21.3l0.04,3.73
		h4.2v0.94h-9.08v-0.94h3.61l0.04-3.73V4.59l-0.04-3.62h-3.61V0.03H47.45z"/>
	<path d="M92.81,0.03v8.88h-1.18c-0.12-1.38-0.28-3.1-1.49-5.15c-1.41-2.4-3.34-2.52-5.23-2.59h-2.2l-0.04,3.54v18.12l0.04,4.01
		h4.25v0.94H74.06v-0.94h4.24l0.04-4.01V4.71L78.3,1.17H76.5c-2.28,0.04-4.01,0.04-5.66,2.67c-1.3,2.08-1.41,3.73-1.49,5.07H68.2
		V0.03H92.81z"/>
	<path d="M103.97,0.03l13.6,19.77V4.59l-0.04-3.62h-4.09V0.03h8.76v0.94h-3.38l-0.04,3.62v23.54l-0.63,0.2L99.92,1.8v21.3l0.04,3.73
		h4.21v0.94h-9.08v-0.94h3.62l0.04-3.73V4.59L98.7,0.97h-3.62V0.03H103.97z"/>
	<path d="M137.46,0.03v0.94h-3.89l-0.04,3.34v15.01c0.04,3.89,0.12,7.58,7.43,7.58c7.39,0,7.86-3.22,7.98-6.72V4.31l-0.04-3.34
		h-3.97V0.03h8.68v0.94h-3.42l-0.04,3.34v14.31c-0.04,5.15-0.08,9.55-10.26,9.55c-1.45,0-4.91-0.16-7.11-1.06
		c-3.5-1.49-3.58-4.56-3.62-8.33V4.31l-0.04-3.34h-3.38V0.03H137.46z"/>
</g>
<g>
	<path d="M40.18,47.56h-2.21v-0.6h9.58c1.26,0,2.36,0.2,3.3,0.61c0.94,0.41,1.71,0.99,2.33,1.74c0.62,0.75,1.08,1.66,1.38,2.71
		c0.3,1.06,0.46,2.23,0.46,3.53c0,1.1-0.12,2.17-0.37,3.19c-0.25,1.02-0.66,1.94-1.24,2.74c-0.58,0.8-1.34,1.44-2.28,1.92
		c-0.94,0.48-2.11,0.72-3.5,0.72h-9.65v-0.6h2.21V47.56z M42.92,63.52h4.06c0.91,0,1.68-0.22,2.32-0.66
		c0.63-0.44,1.15-1.03,1.55-1.76c0.4-0.74,0.69-1.58,0.88-2.54c0.18-0.96,0.28-1.96,0.28-3c0-1.18-0.09-2.26-0.26-3.24
		c-0.18-0.98-0.46-1.82-0.85-2.52c-0.39-0.7-0.9-1.25-1.52-1.64c-0.62-0.39-1.38-0.59-2.28-0.59h-4.15V63.52z"/>
	<path d="M60.49,57.5v0.19c0,0.85,0.04,1.63,0.12,2.35c0.08,0.72,0.24,1.35,0.49,1.9c0.25,0.54,0.61,0.97,1.08,1.27
		c0.47,0.3,1.09,0.46,1.86,0.46c0.54,0,1.02-0.08,1.44-0.24c0.42-0.16,0.78-0.38,1.09-0.65c0.31-0.27,0.58-0.6,0.8-0.97
		c0.22-0.38,0.42-0.78,0.58-1.21l0.53,0.19c-0.26,0.7-0.55,1.29-0.89,1.75c-0.34,0.46-0.72,0.83-1.15,1.1
		c-0.43,0.27-0.92,0.47-1.46,0.59c-0.54,0.12-1.14,0.18-1.8,0.18c-0.9,0-1.68-0.16-2.36-0.49c-0.68-0.33-1.25-0.77-1.7-1.33
		c-0.46-0.56-0.8-1.21-1.02-1.96c-0.22-0.74-0.34-1.54-0.34-2.39c0-0.82,0.13-1.6,0.38-2.34c0.26-0.74,0.62-1.4,1.1-1.97
		c0.48-0.57,1.06-1.02,1.75-1.36s1.47-0.5,2.35-0.5c0.77,0,1.47,0.13,2.1,0.4c0.63,0.26,1.18,0.64,1.63,1.12
		c0.46,0.48,0.81,1.05,1.06,1.72c0.25,0.66,0.37,1.4,0.37,2.2H60.49z M65.62,56.75c0-0.43-0.02-0.89-0.05-1.37
		c-0.03-0.48-0.13-0.92-0.3-1.32c-0.17-0.4-0.42-0.73-0.77-1c-0.34-0.26-0.82-0.4-1.43-0.4c-0.51,0-0.94,0.14-1.27,0.43
		c-0.34,0.29-0.6,0.64-0.79,1.06c-0.19,0.42-0.33,0.86-0.41,1.33c-0.08,0.47-0.12,0.89-0.12,1.26H65.62z"/>
	<path d="M70.09,68.8h2.14V52.96h-2.02v-0.6h4.46v1.75h0.05c0.37-0.77,0.84-1.3,1.42-1.6c0.58-0.3,1.26-0.44,2.06-0.44
		c0.64,0,1.24,0.12,1.79,0.35c0.55,0.23,1.03,0.59,1.44,1.08c0.41,0.49,0.73,1.12,0.96,1.91c0.23,0.78,0.35,1.73,0.35,2.83
		c0,0.82-0.08,1.6-0.24,2.35c-0.16,0.75-0.43,1.41-0.82,1.98c-0.38,0.57-0.89,1.02-1.52,1.36c-0.63,0.34-1.41,0.5-2.34,0.48
		c-0.69,0-1.31-0.13-1.86-0.4c-0.55-0.26-0.96-0.68-1.24-1.26h-0.05v6.05h2.06v0.6h-6.65V68.8z M74.6,59.08
		c0,0.53,0.03,1.06,0.1,1.6c0.06,0.54,0.2,1.03,0.41,1.48c0.21,0.45,0.5,0.81,0.86,1.09c0.37,0.28,0.86,0.42,1.46,0.42
		c0.98,0,1.67-0.47,2.09-1.42c0.42-0.94,0.62-2.28,0.62-4.01c0-0.77-0.04-1.48-0.11-2.15c-0.07-0.66-0.21-1.24-0.41-1.72
		c-0.2-0.48-0.48-0.86-0.83-1.14c-0.35-0.28-0.81-0.42-1.37-0.42c-0.27,0-0.57,0.06-0.9,0.17c-0.33,0.11-0.64,0.33-0.92,0.65
		c-0.29,0.32-0.53,0.76-0.72,1.32c-0.19,0.56-0.29,1.28-0.29,2.16V59.08z"/>
	<path d="M89.81,57.19c0.5-0.13,0.94-0.25,1.34-0.36c0.4-0.11,0.83-0.25,1.3-0.41v-1.01c0-0.42-0.02-0.79-0.07-1.13
		c-0.05-0.34-0.14-0.62-0.28-0.86c-0.14-0.24-0.32-0.42-0.56-0.55c-0.24-0.13-0.56-0.19-0.96-0.19c-0.61,0-1.1,0.13-1.46,0.38
		c-0.37,0.26-0.55,0.78-0.55,1.56c0,0.46-0.1,0.79-0.29,0.97c-0.19,0.18-0.5,0.28-0.91,0.28c-0.32,0-0.58-0.06-0.79-0.17
		c-0.21-0.11-0.31-0.35-0.31-0.72c0-0.58,0.13-1.05,0.4-1.43c0.26-0.38,0.6-0.67,1.01-0.89c0.41-0.22,0.86-0.37,1.37-0.46
		c0.5-0.09,1-0.13,1.48-0.13c0.91,0,1.66,0.09,2.23,0.26c0.58,0.18,1.02,0.42,1.34,0.73c0.32,0.31,0.54,0.68,0.65,1.12
		c0.11,0.43,0.17,0.9,0.17,1.39v6.1c0,0.46,0.04,0.82,0.11,1.07c0.07,0.25,0.18,0.43,0.34,0.54c0.15,0.11,0.35,0.18,0.59,0.2
		c0.24,0.02,0.53,0.04,0.86,0.04v0.6h-1.82c-0.34,0-0.64-0.01-0.92-0.04c-0.28-0.02-0.54-0.09-0.77-0.2
		c-0.23-0.11-0.43-0.27-0.59-0.47c-0.16-0.2-0.29-0.48-0.38-0.85c-0.46,0.72-1,1.21-1.6,1.46c-0.6,0.26-1.3,0.38-2.1,0.38
		c-1.25,0-2.11-0.3-2.58-0.91c-0.47-0.61-0.71-1.46-0.71-2.57c0-1.01,0.26-1.77,0.77-2.28c0.51-0.51,1.27-0.89,2.28-1.13
		L89.81,57.19z M89.96,57.83c-0.37,0.11-0.67,0.24-0.91,0.37c-0.24,0.14-0.43,0.32-0.58,0.54c-0.14,0.22-0.25,0.51-0.31,0.85
		c-0.06,0.34-0.1,0.78-0.1,1.31c0,0.37,0.02,0.72,0.06,1.06c0.04,0.34,0.12,0.63,0.23,0.88c0.11,0.25,0.27,0.45,0.48,0.6
		c0.21,0.15,0.47,0.23,0.79,0.23c0.53,0,0.97-0.14,1.33-0.43c0.36-0.29,0.65-0.65,0.88-1.08c0.22-0.43,0.38-0.9,0.48-1.39
		s0.14-0.95,0.14-1.37v-2.3L89.96,57.83z"/>
	<path d="M99.85,52.96h-2.06v-0.6h4.51v2.76h0.05c0.13-0.35,0.29-0.71,0.48-1.07c0.19-0.36,0.43-0.69,0.71-0.98
		c0.28-0.3,0.6-0.54,0.95-0.72c0.35-0.18,0.76-0.28,1.22-0.28c0.72,0,1.26,0.21,1.63,0.62c0.37,0.42,0.55,0.98,0.55,1.68
		c0,0.48-0.1,0.87-0.3,1.16c-0.2,0.3-0.52,0.44-0.95,0.44c-0.32,0-0.6-0.11-0.84-0.34c-0.24-0.22-0.36-0.52-0.36-0.89
		c0-0.18,0.02-0.38,0.06-0.62c0.04-0.24,0.06-0.44,0.06-0.6c0-0.18-0.06-0.32-0.17-0.43c-0.11-0.11-0.26-0.17-0.43-0.17
		c-0.32,0-0.64,0.16-0.95,0.47c-0.31,0.31-0.6,0.72-0.85,1.22c-0.26,0.5-0.46,1.08-0.62,1.72c-0.16,0.64-0.24,1.28-0.24,1.92v5.26
		h1.99v0.6h-6.5v-0.6h2.06V52.96z"/>
	<path d="M108.48,52.36h1.66v-3.19h2.45v3.19h2.66v0.6h-2.66v8.5c0,0.72,0.09,1.25,0.26,1.58c0.18,0.34,0.51,0.5,1.01,0.5
		c0.46,0,0.81-0.14,1.04-0.43c0.23-0.29,0.44-0.62,0.64-1.01l0.55,0.24l-0.22,0.43c-0.24,0.43-0.59,0.81-1.04,1.14
		c-0.46,0.33-1.12,0.49-1.98,0.49c-0.62,0-1.12-0.08-1.48-0.24c-0.36-0.16-0.63-0.38-0.82-0.66c-0.18-0.28-0.3-0.6-0.35-0.95
		c-0.05-0.35-0.07-0.72-0.07-1.1v-8.5h-1.66V52.36z"/>
	<path d="M126.12,55.58c0-0.34-0.02-0.66-0.06-0.97s-0.13-0.59-0.26-0.84c-0.14-0.25-0.33-0.45-0.59-0.6
		c-0.26-0.15-0.6-0.23-1.03-0.23c-0.53,0-0.99,0.12-1.39,0.36c-0.4,0.24-0.74,0.56-1.02,0.97c-0.28,0.41-0.49,0.87-0.62,1.39
		c-0.14,0.52-0.2,1.06-0.2,1.62v6.24h1.9v0.6h-6.41v-0.6h2.06V52.96h-2.06v-0.6h4.51v2.26h0.05c0.37-0.82,0.9-1.44,1.61-1.88
		c0.7-0.44,1.55-0.66,2.54-0.66c0.98,0,1.76,0.22,2.35,0.66c0.59,0.44,0.94,1.12,1.03,2.03h0.05c0.35-0.91,0.9-1.59,1.66-2.03
		c0.75-0.44,1.57-0.66,2.45-0.66c1.18,0,2.07,0.26,2.65,0.79c0.58,0.53,0.88,1.39,0.88,2.59v8.06h1.9v0.6h-6.24v-0.6h1.9v-7.94
		c0-0.34-0.02-0.66-0.06-0.97c-0.04-0.31-0.12-0.59-0.25-0.84c-0.13-0.25-0.31-0.45-0.55-0.6c-0.24-0.15-0.55-0.23-0.94-0.23
		c-0.56,0-1.05,0.13-1.48,0.38c-0.42,0.26-0.78,0.6-1.06,1.02c-0.28,0.42-0.49,0.9-0.64,1.44c-0.14,0.54-0.22,1.08-0.22,1.64v6.1
		h1.9v0.6h-6.24v-0.6h1.9V55.58z"/>
	<path d="M142.71,57.5v0.19c0,0.85,0.04,1.63,0.12,2.35c0.08,0.72,0.24,1.35,0.49,1.9c0.25,0.54,0.61,0.97,1.08,1.27
		c0.47,0.3,1.09,0.46,1.86,0.46c0.54,0,1.02-0.08,1.44-0.24c0.42-0.16,0.78-0.38,1.09-0.65c0.31-0.27,0.58-0.6,0.8-0.97
		c0.22-0.38,0.42-0.78,0.58-1.21l0.53,0.19c-0.26,0.7-0.55,1.29-0.89,1.75c-0.34,0.46-0.72,0.83-1.15,1.1
		c-0.43,0.27-0.92,0.47-1.46,0.59c-0.54,0.12-1.14,0.18-1.8,0.18c-0.9,0-1.68-0.16-2.36-0.49c-0.68-0.33-1.25-0.77-1.7-1.33
		c-0.46-0.56-0.8-1.21-1.02-1.96c-0.22-0.74-0.34-1.54-0.34-2.39c0-0.82,0.13-1.6,0.38-2.34c0.26-0.74,0.62-1.4,1.1-1.97
		c0.48-0.57,1.06-1.02,1.75-1.36s1.47-0.5,2.35-0.5c0.77,0,1.47,0.13,2.1,0.4c0.63,0.26,1.18,0.64,1.63,1.12
		c0.46,0.48,0.81,1.05,1.06,1.72c0.25,0.66,0.37,1.4,0.37,2.2H142.71z M147.84,56.75c0-0.43-0.02-0.89-0.05-1.37
		c-0.03-0.48-0.13-0.92-0.3-1.32c-0.17-0.4-0.42-0.73-0.77-1c-0.34-0.26-0.82-0.4-1.43-0.4c-0.51,0-0.94,0.14-1.27,0.43
		c-0.34,0.29-0.6,0.64-0.79,1.06c-0.19,0.42-0.33,0.86-0.41,1.33c-0.08,0.47-0.12,0.89-0.12,1.26H147.84z"/>
	<path d="M154.49,63.52V52.96h-2.06v-0.6h4.51v2.26h0.05c0.37-0.82,0.9-1.44,1.61-1.88c0.7-0.44,1.55-0.66,2.54-0.66
		c1.18,0,2.07,0.26,2.65,0.79c0.58,0.53,0.88,1.39,0.88,2.59v8.06h1.9v0.6h-6.24v-0.6h1.9v-7.94c0-0.34-0.02-0.66-0.06-0.97
		c-0.04-0.31-0.13-0.59-0.26-0.84c-0.14-0.25-0.33-0.45-0.59-0.6c-0.26-0.15-0.59-0.23-1.01-0.23c-0.56,0-1.05,0.12-1.46,0.36
		c-0.42,0.24-0.76,0.56-1.04,0.97c-0.28,0.41-0.49,0.87-0.64,1.39c-0.14,0.52-0.22,1.06-0.22,1.62v6.24h1.9v0.6h-6.41v-0.6H154.49z"
		/>
	<path d="M167.6,52.36h1.66v-3.19h2.45v3.19h2.66v0.6h-2.66v8.5c0,0.72,0.09,1.25,0.26,1.58c0.18,0.34,0.51,0.5,1.01,0.5
		c0.46,0,0.81-0.14,1.04-0.43c0.23-0.29,0.44-0.62,0.64-1.01l0.55,0.24l-0.22,0.43c-0.24,0.43-0.59,0.81-1.04,1.14
		c-0.46,0.33-1.12,0.49-1.98,0.49c-0.62,0-1.12-0.08-1.48-0.24c-0.36-0.16-0.63-0.38-0.82-0.66c-0.18-0.28-0.3-0.6-0.35-0.95
		c-0.05-0.35-0.07-0.72-0.07-1.1v-8.5h-1.66V52.36z"/>
	<path d="M183.1,58.24c0-0.61,0.09-1.27,0.28-1.99c0.18-0.72,0.49-1.39,0.92-2c0.43-0.62,1-1.13,1.72-1.55
		c0.71-0.42,1.6-0.62,2.68-0.62c1.07,0,1.96,0.21,2.68,0.62s1.28,0.93,1.72,1.55c0.43,0.62,0.74,1.28,0.92,2
		c0.18,0.72,0.28,1.38,0.28,1.99s-0.09,1.27-0.28,1.99c-0.18,0.72-0.49,1.39-0.92,2c-0.43,0.62-1,1.13-1.72,1.55
		s-1.6,0.62-2.68,0.62c-1.07,0-1.96-0.21-2.68-0.62c-0.71-0.42-1.28-0.93-1.72-1.55c-0.43-0.62-0.74-1.28-0.92-2
		C183.19,59.51,183.1,58.85,183.1,58.24z M185.84,58.24c0,0.62,0.02,1.27,0.05,1.93c0.03,0.66,0.14,1.26,0.31,1.8
		c0.18,0.54,0.46,0.98,0.85,1.32c0.39,0.34,0.94,0.52,1.64,0.52c0.7,0,1.25-0.17,1.63-0.52c0.38-0.34,0.67-0.78,0.85-1.32
		c0.18-0.54,0.29-1.14,0.32-1.8c0.03-0.66,0.05-1.31,0.05-1.93c0-0.62-0.02-1.27-0.05-1.93c-0.03-0.66-0.14-1.26-0.32-1.8
		c-0.18-0.54-0.47-0.98-0.85-1.32c-0.38-0.34-0.93-0.52-1.63-0.52c-0.7,0-1.25,0.17-1.64,0.52c-0.39,0.34-0.68,0.78-0.85,1.32
		c-0.18,0.54-0.28,1.14-0.31,1.8C185.85,56.97,185.84,57.62,185.84,58.24z"/>
	<path d="M196.04,52.96v-0.6h2.02v-2.4c0-0.66,0.11-1.2,0.34-1.62c0.22-0.42,0.52-0.76,0.88-1.01c0.36-0.25,0.77-0.42,1.22-0.52
		c0.46-0.1,0.91-0.14,1.36-0.14c0.35,0,0.74,0.03,1.16,0.1c0.42,0.06,0.81,0.18,1.16,0.36c0.35,0.18,0.65,0.42,0.89,0.72
		c0.24,0.3,0.36,0.69,0.36,1.15c0,0.32-0.09,0.57-0.28,0.74c-0.18,0.18-0.44,0.26-0.76,0.26c-0.75,0-1.13-0.38-1.13-1.13
		c0-0.51-0.1-0.91-0.29-1.19c-0.19-0.28-0.52-0.42-0.98-0.42c-0.32,0-0.58,0.06-0.78,0.17c-0.2,0.11-0.35,0.28-0.46,0.49
		c-0.1,0.22-0.17,0.47-0.2,0.77c-0.03,0.3-0.05,0.62-0.05,0.97v2.69h2.3v0.6h-2.3v10.56h1.94v0.6h-6.41v-0.6h2.02V52.96H196.04z"/>
	<path d="M225.75,52.58h-0.72c-0.1-0.72-0.24-1.4-0.44-2.03c-0.2-0.63-0.49-1.18-0.86-1.64c-0.38-0.46-0.85-0.83-1.42-1.09
		c-0.57-0.26-1.26-0.4-2.08-0.4c-1.18,0-2.13,0.24-2.83,0.71c-0.7,0.47-1.24,1.09-1.62,1.85c-0.38,0.76-0.62,1.62-0.74,2.59
		c-0.12,0.97-0.18,1.96-0.18,2.96c0,0.85,0.04,1.75,0.13,2.7c0.09,0.95,0.3,1.83,0.64,2.64c0.34,0.81,0.83,1.48,1.49,2
		c0.66,0.53,1.56,0.79,2.71,0.79c0.83,0,1.56-0.16,2.18-0.47c0.62-0.31,1.15-0.73,1.57-1.26c0.42-0.53,0.76-1.14,1-1.82
		c0.24-0.69,0.38-1.41,0.43-2.16h0.72v4.75c-1.09,0.59-2.11,1.02-3.07,1.3c-0.96,0.27-1.93,0.41-2.9,0.41
		c-1.3,0-2.45-0.22-3.46-0.66c-1.01-0.44-1.85-1.06-2.53-1.85c-0.68-0.79-1.2-1.73-1.55-2.81c-0.35-1.08-0.53-2.27-0.53-3.56
		c0-1.28,0.19-2.46,0.58-3.54s0.94-2.02,1.67-2.81s1.61-1.41,2.65-1.85c1.04-0.44,2.21-0.66,3.5-0.66c0.96,0,1.92,0.13,2.89,0.38
		c0.97,0.26,1.89,0.59,2.77,1.01V52.58z"/>
	<path d="M228.87,58.24c0-0.61,0.09-1.27,0.28-1.99c0.18-0.72,0.49-1.39,0.92-2c0.43-0.62,1-1.13,1.72-1.55
		c0.71-0.42,1.6-0.62,2.68-0.62c1.07,0,1.96,0.21,2.68,0.62s1.28,0.93,1.72,1.55c0.43,0.62,0.74,1.28,0.92,2
		c0.18,0.72,0.28,1.38,0.28,1.99s-0.09,1.27-0.28,1.99c-0.18,0.72-0.49,1.39-0.92,2c-0.43,0.62-1,1.13-1.72,1.55
		s-1.6,0.62-2.68,0.62c-1.07,0-1.96-0.21-2.68-0.62c-0.71-0.42-1.28-0.93-1.72-1.55c-0.43-0.62-0.74-1.28-0.92-2
		C228.96,59.51,228.87,58.85,228.87,58.24z M231.6,58.24c0,0.62,0.02,1.27,0.05,1.93c0.03,0.66,0.14,1.26,0.31,1.8
		c0.18,0.54,0.46,0.98,0.85,1.32c0.39,0.34,0.94,0.52,1.64,0.52c0.7,0,1.25-0.17,1.63-0.52c0.38-0.34,0.67-0.78,0.85-1.32
		c0.18-0.54,0.29-1.14,0.32-1.8c0.03-0.66,0.05-1.31,0.05-1.93c0-0.62-0.02-1.27-0.05-1.93c-0.03-0.66-0.14-1.26-0.32-1.8
		c-0.18-0.54-0.47-0.98-0.85-1.32c-0.38-0.34-0.93-0.52-1.63-0.52c-0.7,0-1.25,0.17-1.64,0.52c-0.39,0.34-0.68,0.78-0.85,1.32
		c-0.18,0.54-0.28,1.14-0.31,1.8C231.62,56.97,231.6,57.62,231.6,58.24z"/>
	<path d="M251.45,55.58c0-0.34-0.02-0.66-0.06-0.97c-0.04-0.31-0.13-0.59-0.26-0.84c-0.14-0.25-0.33-0.45-0.59-0.6
		c-0.26-0.15-0.6-0.23-1.03-0.23c-0.53,0-0.99,0.12-1.39,0.36c-0.4,0.24-0.74,0.56-1.02,0.97c-0.28,0.41-0.49,0.87-0.62,1.39
		c-0.14,0.52-0.2,1.06-0.2,1.62v6.24h1.9v0.6h-6.41v-0.6h2.06V52.96h-2.06v-0.6h4.51v2.26h0.05c0.37-0.82,0.9-1.44,1.61-1.88
		c0.7-0.44,1.55-0.66,2.54-0.66c0.98,0,1.76,0.22,2.35,0.66c0.59,0.44,0.94,1.12,1.03,2.03h0.05c0.35-0.91,0.9-1.59,1.66-2.03
		c0.75-0.44,1.57-0.66,2.45-0.66c1.18,0,2.07,0.26,2.65,0.79c0.58,0.53,0.88,1.39,0.88,2.59v8.06h1.9v0.6h-6.24v-0.6h1.9v-7.94
		c0-0.34-0.02-0.66-0.06-0.97c-0.04-0.31-0.12-0.59-0.25-0.84c-0.13-0.25-0.31-0.45-0.55-0.6c-0.24-0.15-0.55-0.23-0.94-0.23
		c-0.56,0-1.05,0.13-1.48,0.38c-0.42,0.26-0.78,0.6-1.06,1.02c-0.28,0.42-0.49,0.9-0.64,1.44c-0.14,0.54-0.22,1.08-0.22,1.64v6.1
		h1.9v0.6h-6.24v-0.6h1.9V55.58z"/>
	<path d="M264.29,68.8h2.14V52.96h-2.02v-0.6h4.46v1.75h0.05c0.37-0.77,0.84-1.3,1.42-1.6c0.58-0.3,1.26-0.44,2.06-0.44
		c0.64,0,1.24,0.12,1.79,0.35c0.55,0.23,1.03,0.59,1.44,1.08c0.41,0.49,0.73,1.12,0.96,1.91c0.23,0.78,0.35,1.73,0.35,2.83
		c0,0.82-0.08,1.6-0.24,2.35c-0.16,0.75-0.43,1.41-0.82,1.98c-0.38,0.57-0.89,1.02-1.52,1.36c-0.63,0.34-1.41,0.5-2.34,0.48
		c-0.69,0-1.31-0.13-1.86-0.4c-0.55-0.26-0.96-0.68-1.24-1.26h-0.05v6.05h2.06v0.6h-6.65V68.8z M268.8,59.08
		c0,0.53,0.03,1.06,0.1,1.6c0.06,0.54,0.2,1.03,0.41,1.48c0.21,0.45,0.5,0.81,0.86,1.09c0.37,0.28,0.86,0.42,1.46,0.42
		c0.98,0,1.67-0.47,2.09-1.42c0.42-0.94,0.62-2.28,0.62-4.01c0-0.77-0.04-1.48-0.11-2.15c-0.07-0.66-0.21-1.24-0.41-1.72
		c-0.2-0.48-0.48-0.86-0.83-1.14c-0.35-0.28-0.81-0.42-1.37-0.42c-0.27,0-0.57,0.06-0.9,0.17c-0.33,0.11-0.64,0.33-0.92,0.65
		c-0.29,0.32-0.53,0.76-0.72,1.32c-0.19,0.56-0.29,1.28-0.29,2.16V59.08z"/>
	<path d="M288.43,61.87h-0.05c-0.37,0.82-0.9,1.44-1.61,1.88c-0.7,0.44-1.55,0.66-2.54,0.66c-1.18,0-2.07-0.26-2.65-0.79
		c-0.58-0.53-0.88-1.39-0.88-2.59v-8.06h-1.9v-0.6h4.34v8.54c0,0.34,0.02,0.66,0.06,0.97c0.04,0.31,0.13,0.59,0.26,0.84
		c0.14,0.25,0.33,0.45,0.59,0.6c0.26,0.15,0.59,0.23,1.01,0.23c0.56,0,1.05-0.12,1.46-0.36c0.42-0.24,0.76-0.56,1.04-0.97
		c0.28-0.41,0.49-0.87,0.64-1.39c0.14-0.52,0.22-1.06,0.22-1.62v-6.24h-2.18v-0.6h4.63v11.16h2.06v0.6h-4.51V61.87z"/>
	<path d="M293.81,52.36h1.66v-3.19h2.45v3.19h2.66v0.6h-2.66v8.5c0,0.72,0.09,1.25,0.26,1.58c0.18,0.34,0.51,0.5,1.01,0.5
		c0.46,0,0.81-0.14,1.04-0.43c0.23-0.29,0.44-0.62,0.64-1.01l0.55,0.24l-0.22,0.43c-0.24,0.43-0.59,0.81-1.04,1.14
		c-0.46,0.33-1.12,0.49-1.98,0.49c-0.62,0-1.12-0.08-1.48-0.24c-0.36-0.16-0.63-0.38-0.82-0.66c-0.18-0.28-0.3-0.6-0.35-0.95
		c-0.05-0.35-0.07-0.72-0.07-1.1v-8.5h-1.66V52.36z"/>
	<path d="M305.38,57.5v0.19c0,0.85,0.04,1.63,0.12,2.35c0.08,0.72,0.24,1.35,0.49,1.9c0.25,0.54,0.61,0.97,1.08,1.27
		c0.47,0.3,1.09,0.46,1.86,0.46c0.54,0,1.02-0.08,1.44-0.24c0.42-0.16,0.78-0.38,1.09-0.65c0.31-0.27,0.58-0.6,0.8-0.97
		c0.22-0.38,0.42-0.78,0.58-1.21l0.53,0.19c-0.26,0.7-0.55,1.29-0.89,1.75c-0.34,0.46-0.72,0.83-1.15,1.1
		c-0.43,0.27-0.92,0.47-1.46,0.59c-0.54,0.12-1.14,0.18-1.8,0.18c-0.9,0-1.68-0.16-2.36-0.49c-0.68-0.33-1.25-0.77-1.7-1.33
		c-0.46-0.56-0.8-1.21-1.02-1.96c-0.22-0.74-0.34-1.54-0.34-2.39c0-0.82,0.13-1.6,0.38-2.34c0.26-0.74,0.62-1.4,1.1-1.97
		c0.48-0.57,1.06-1.02,1.75-1.36c0.69-0.34,1.47-0.5,2.35-0.5c0.77,0,1.47,0.13,2.1,0.4c0.63,0.26,1.18,0.64,1.63,1.12
		c0.46,0.48,0.81,1.05,1.06,1.72c0.25,0.66,0.37,1.4,0.37,2.2H305.38z M310.51,56.75c0-0.43-0.02-0.89-0.05-1.37
		s-0.13-0.92-0.3-1.32c-0.17-0.4-0.42-0.73-0.77-1c-0.34-0.26-0.82-0.4-1.43-0.4c-0.51,0-0.94,0.14-1.27,0.43s-0.6,0.64-0.79,1.06
		c-0.19,0.42-0.33,0.86-0.41,1.33c-0.08,0.47-0.12,0.89-0.12,1.26H310.51z"/>
	<path d="M317.16,52.96h-2.06v-0.6h4.51v2.76h0.05c0.13-0.35,0.29-0.71,0.48-1.07c0.19-0.36,0.43-0.69,0.71-0.98
		c0.28-0.3,0.6-0.54,0.95-0.72c0.35-0.18,0.76-0.28,1.22-0.28c0.72,0,1.26,0.21,1.63,0.62c0.37,0.42,0.55,0.98,0.55,1.68
		c0,0.48-0.1,0.87-0.3,1.16c-0.2,0.3-0.52,0.44-0.95,0.44c-0.32,0-0.6-0.11-0.84-0.34c-0.24-0.22-0.36-0.52-0.36-0.89
		c0-0.18,0.02-0.38,0.06-0.62c0.04-0.24,0.06-0.44,0.06-0.6c0-0.18-0.06-0.32-0.17-0.43c-0.11-0.11-0.26-0.17-0.43-0.17
		c-0.32,0-0.64,0.16-0.95,0.47s-0.6,0.72-0.85,1.22c-0.26,0.5-0.46,1.08-0.62,1.72c-0.16,0.64-0.24,1.28-0.24,1.92v5.26h1.99v0.6
		h-6.5v-0.6h2.06V52.96z"/>
	<path d="M333.15,58.48h0.67c0.05,0.69,0.2,1.34,0.46,1.97c0.26,0.62,0.6,1.18,1.04,1.66c0.44,0.48,0.95,0.86,1.54,1.14
		c0.58,0.28,1.23,0.42,1.93,0.42c0.5,0,0.98-0.06,1.45-0.19c0.47-0.13,0.9-0.33,1.27-0.61c0.38-0.28,0.68-0.63,0.9-1.04
		c0.22-0.42,0.34-0.91,0.34-1.49c0-0.77-0.23-1.38-0.68-1.85c-0.46-0.46-1.03-0.86-1.73-1.2c-0.7-0.34-1.44-0.64-2.24-0.92
		c-0.8-0.28-1.55-0.62-2.24-1.02c-0.7-0.4-1.27-0.9-1.73-1.51c-0.46-0.61-0.68-1.41-0.68-2.4c0-0.77,0.15-1.44,0.44-2.03
		c0.3-0.58,0.7-1.08,1.2-1.49c0.5-0.41,1.08-0.72,1.74-0.92c0.66-0.21,1.34-0.31,2.04-0.31c0.72,0,1.48,0.1,2.27,0.29
		c0.79,0.19,1.52,0.44,2.17,0.74l0.14,3.77h-0.65c-0.58-2.7-1.98-4.06-4.2-4.06c-0.42,0-0.82,0.06-1.22,0.17
		c-0.4,0.11-0.75,0.28-1.06,0.52c-0.3,0.23-0.55,0.52-0.73,0.88c-0.18,0.35-0.28,0.77-0.28,1.25c0,0.54,0.13,1,0.4,1.36
		c0.26,0.36,0.61,0.68,1.04,0.95c0.43,0.27,0.92,0.51,1.46,0.72c0.54,0.21,1.1,0.42,1.68,0.65c0.58,0.22,1.14,0.48,1.68,0.76
		c0.54,0.28,1.03,0.62,1.46,1.03c0.43,0.41,0.78,0.9,1.04,1.46c0.26,0.57,0.4,1.25,0.4,2.05c0,0.82-0.17,1.55-0.52,2.2
		c-0.34,0.65-0.8,1.2-1.37,1.64c-0.57,0.45-1.21,0.79-1.93,1.02c-0.72,0.23-1.45,0.35-2.18,0.35c-0.9,0-1.75-0.08-2.57-0.23
		c-0.82-0.15-1.68-0.44-2.59-0.85L333.15,58.48z"/>
	<path d="M357.48,60.4c-0.29,0.8-0.62,1.46-1,1.97c-0.38,0.51-0.78,0.92-1.22,1.22c-0.44,0.3-0.92,0.52-1.43,0.64
		c-0.51,0.12-1.04,0.18-1.58,0.18c-0.88,0-1.66-0.17-2.35-0.5c-0.69-0.34-1.27-0.79-1.75-1.36c-0.48-0.57-0.85-1.22-1.1-1.97
		c-0.26-0.74-0.38-1.52-0.38-2.34c0-0.85,0.14-1.65,0.43-2.4c0.29-0.75,0.68-1.41,1.19-1.97c0.5-0.56,1.11-1,1.81-1.32
		c0.7-0.32,1.48-0.48,2.33-0.48c0.56,0,1.12,0.08,1.68,0.24c0.56,0.16,1.07,0.39,1.52,0.68c0.46,0.3,0.82,0.65,1.1,1.07
		c0.28,0.42,0.42,0.88,0.42,1.39c0,0.48-0.12,0.82-0.36,1.02c-0.24,0.2-0.54,0.3-0.91,0.3c-0.43,0-0.74-0.13-0.91-0.38
		c-0.18-0.26-0.26-0.54-0.26-0.86c0-0.18,0.01-0.32,0.02-0.43c0.02-0.11,0.02-0.22,0.02-0.34c0-0.67-0.2-1.19-0.59-1.55
		c-0.39-0.36-0.96-0.54-1.72-0.54c-0.59,0-1.08,0.14-1.48,0.43c-0.39,0.29-0.7,0.68-0.94,1.18c-0.23,0.5-0.4,1.08-0.49,1.76
		c-0.1,0.68-0.14,1.41-0.14,2.2c0,0.48,0.03,1.03,0.08,1.66c0.06,0.62,0.2,1.22,0.43,1.78c0.23,0.56,0.58,1.03,1.06,1.42
		c0.47,0.38,1.13,0.58,1.98,0.58c0.54,0,1.02-0.08,1.44-0.24c0.42-0.16,0.78-0.39,1.1-0.7c0.32-0.3,0.6-0.67,0.84-1.09
		c0.24-0.42,0.45-0.9,0.62-1.43L357.48,60.4z"/>
	<path d="M360.39,52.96h-2.06v-0.6h4.51v11.16h2.06v0.6h-6.58v-0.6h2.06V52.96z M360.17,48.62c0-0.4,0.14-0.74,0.43-1.02
		c0.29-0.28,0.62-0.42,1.01-0.42c0.38,0,0.72,0.14,1.01,0.42c0.29,0.28,0.43,0.62,0.43,1.02c0,0.38-0.14,0.72-0.43,1.01
		c-0.29,0.29-0.62,0.43-1.01,0.43c-0.38,0-0.72-0.14-1.01-0.43C360.31,49.34,360.17,49,360.17,48.62z"/>
	<path d="M369.43,57.5v0.19c0,0.85,0.04,1.63,0.12,2.35c0.08,0.72,0.24,1.35,0.49,1.9c0.25,0.54,0.61,0.97,1.08,1.27
		c0.47,0.3,1.09,0.46,1.86,0.46c0.54,0,1.02-0.08,1.44-0.24c0.42-0.16,0.78-0.38,1.09-0.65c0.31-0.27,0.58-0.6,0.8-0.97
		c0.22-0.38,0.42-0.78,0.58-1.21l0.53,0.19c-0.26,0.7-0.55,1.29-0.89,1.75c-0.34,0.46-0.72,0.83-1.15,1.1
		c-0.43,0.27-0.92,0.47-1.46,0.59c-0.54,0.12-1.14,0.18-1.8,0.18c-0.9,0-1.68-0.16-2.36-0.49c-0.68-0.33-1.25-0.77-1.7-1.33
		c-0.46-0.56-0.8-1.21-1.02-1.96c-0.22-0.74-0.34-1.54-0.34-2.39c0-0.82,0.13-1.6,0.38-2.34c0.26-0.74,0.62-1.4,1.1-1.97
		c0.48-0.57,1.06-1.02,1.75-1.36c0.69-0.34,1.47-0.5,2.35-0.5c0.77,0,1.47,0.13,2.1,0.4c0.63,0.26,1.18,0.64,1.63,1.12
		c0.46,0.48,0.81,1.05,1.06,1.72c0.25,0.66,0.37,1.4,0.37,2.2H369.43z M374.57,56.75c0-0.43-0.02-0.89-0.05-1.37
		c-0.03-0.48-0.13-0.92-0.3-1.32c-0.17-0.4-0.42-0.73-0.77-1c-0.34-0.26-0.82-0.4-1.43-0.4c-0.51,0-0.94,0.14-1.27,0.43
		c-0.34,0.29-0.6,0.64-0.79,1.06s-0.33,0.86-0.41,1.33c-0.08,0.47-0.12,0.89-0.12,1.26H374.57z"/>
	<path d="M381.22,63.52V52.96h-2.06v-0.6h4.51v2.26h0.05c0.37-0.82,0.9-1.44,1.61-1.88c0.7-0.44,1.55-0.66,2.54-0.66
		c1.18,0,2.07,0.26,2.65,0.79c0.58,0.53,0.88,1.39,0.88,2.59v8.06h1.9v0.6h-6.24v-0.6h1.9v-7.94c0-0.34-0.02-0.66-0.06-0.97
		c-0.04-0.31-0.13-0.59-0.26-0.84c-0.14-0.25-0.33-0.45-0.59-0.6c-0.26-0.15-0.59-0.23-1.01-0.23c-0.56,0-1.05,0.12-1.46,0.36
		c-0.42,0.24-0.76,0.56-1.04,0.97c-0.28,0.41-0.49,0.87-0.64,1.39c-0.14,0.52-0.22,1.06-0.22,1.62v6.24h1.9v0.6h-6.41v-0.6H381.22z"
		/>
	<path d="M405.98,60.4c-0.29,0.8-0.62,1.46-1,1.97c-0.38,0.51-0.78,0.92-1.22,1.22c-0.44,0.3-0.92,0.52-1.43,0.64
		c-0.51,0.12-1.04,0.18-1.58,0.18c-0.88,0-1.66-0.17-2.35-0.5c-0.69-0.34-1.27-0.79-1.75-1.36c-0.48-0.57-0.85-1.22-1.1-1.97
		c-0.26-0.74-0.38-1.52-0.38-2.34c0-0.85,0.14-1.65,0.43-2.4c0.29-0.75,0.68-1.41,1.19-1.97s1.11-1,1.81-1.32
		c0.7-0.32,1.48-0.48,2.33-0.48c0.56,0,1.12,0.08,1.68,0.24c0.56,0.16,1.07,0.39,1.52,0.68c0.46,0.3,0.82,0.65,1.1,1.07
		c0.28,0.42,0.42,0.88,0.42,1.39c0,0.48-0.12,0.82-0.36,1.02c-0.24,0.2-0.54,0.3-0.91,0.3c-0.43,0-0.74-0.13-0.91-0.38
		c-0.18-0.26-0.26-0.54-0.26-0.86c0-0.18,0.01-0.32,0.02-0.43c0.02-0.11,0.02-0.22,0.02-0.34c0-0.67-0.2-1.19-0.59-1.55
		c-0.39-0.36-0.96-0.54-1.72-0.54c-0.59,0-1.08,0.14-1.48,0.43s-0.7,0.68-0.94,1.18c-0.23,0.5-0.4,1.08-0.49,1.76
		c-0.1,0.68-0.14,1.41-0.14,2.2c0,0.48,0.03,1.03,0.08,1.66c0.06,0.62,0.2,1.22,0.43,1.78c0.23,0.56,0.58,1.03,1.06,1.42
		c0.47,0.38,1.13,0.58,1.98,0.58c0.54,0,1.02-0.08,1.44-0.24c0.42-0.16,0.78-0.39,1.1-0.7c0.32-0.3,0.6-0.67,0.84-1.09
		c0.24-0.42,0.45-0.9,0.62-1.43L405.98,60.4z"/>
	<path d="M410.35,57.5v0.19c0,0.85,0.04,1.63,0.12,2.35c0.08,0.72,0.24,1.35,0.49,1.9c0.25,0.54,0.61,0.97,1.08,1.27
		c0.47,0.3,1.09,0.46,1.86,0.46c0.54,0,1.02-0.08,1.44-0.24c0.42-0.16,0.78-0.38,1.09-0.65c0.31-0.27,0.58-0.6,0.8-0.97
		c0.22-0.38,0.42-0.78,0.58-1.21l0.53,0.19c-0.26,0.7-0.55,1.29-0.89,1.75c-0.34,0.46-0.72,0.83-1.15,1.1
		c-0.43,0.27-0.92,0.47-1.46,0.59c-0.54,0.12-1.14,0.18-1.8,0.18c-0.9,0-1.68-0.16-2.36-0.49c-0.68-0.33-1.25-0.77-1.7-1.33
		c-0.46-0.56-0.8-1.21-1.02-1.96c-0.22-0.74-0.34-1.54-0.34-2.39c0-0.82,0.13-1.6,0.38-2.34c0.26-0.74,0.62-1.4,1.1-1.97
		c0.48-0.57,1.06-1.02,1.75-1.36c0.69-0.34,1.47-0.5,2.35-0.5c0.77,0,1.47,0.13,2.1,0.4c0.63,0.26,1.18,0.64,1.63,1.12
		c0.46,0.48,0.81,1.05,1.06,1.72c0.25,0.66,0.37,1.4,0.37,2.2H410.35z M415.49,56.75c0-0.43-0.02-0.89-0.05-1.37
		c-0.03-0.48-0.13-0.92-0.3-1.32c-0.17-0.4-0.42-0.73-0.77-1c-0.34-0.26-0.82-0.4-1.43-0.4c-0.51,0-0.94,0.14-1.27,0.43
		c-0.34,0.29-0.6,0.64-0.79,1.06c-0.19,0.42-0.33,0.86-0.41,1.33c-0.08,0.47-0.12,0.89-0.12,1.26H415.49z"/>
</g>
</svg>
